#N canvas 61 960 863 245 10;
#X obj 32 56 notein;
#X floatatom 32 99 5 0 0 0 - - -;
#X floatatom 70 100 5 0 0 0 - - -;
#X floatatom 108 99 5 0 0 0 - - -;
#X obj 158 54 ctlin;
#X floatatom 158 99 5 0 0 0 - - -;
#X floatatom 198 99 5 0 0 0 - - -;
#X floatatom 239 99 5 0 0 0 - - -;
#X obj 289 55 pgmin;
#X floatatom 287 99 5 0 0 0 - - -;
#X floatatom 326 99 5 0 0 0 - - -;
#X floatatom 375 96 5 0 0 0 - - -;
#X obj 375 54 bendin;
#X floatatom 417 97 5 0 0 0 - - -;
#X obj 472 55 touchin;
#X floatatom 469 96 5 0 0 0 - - -;
#X floatatom 514 96 5 0 0 0 - - -;
#X floatatom 572 97 5 0 0 0 - - -;
#X obj 566 58 polytouchin;
#X floatatom 612 96 5 0 0 0 - - -;
#X floatatom 656 96 5 0 0 0 - - -;
#X text 29 11 midi in;
#X text 191 164 midi out;
#X text 271 27 pgm 1-128;
#X text 363 31 bend 0-16383;
#X obj 717 53 sysexin;
#X floatatom 711 93 5 0 0 0 - - -;
#X floatatom 755 93 5 0 0 0 - - -;
#X obj 711 123 print sysex;
#X connect 0 0 1 0;
#X connect 0 1 2 0;
#X connect 0 2 3 0;
#X connect 4 0 5 0;
#X connect 4 1 6 0;
#X connect 4 2 7 0;
#X connect 8 0 9 0;
#X connect 8 1 10 0;
#X connect 12 0 11 0;
#X connect 12 1 13 0;
#X connect 14 0 15 0;
#X connect 14 1 16 0;
#X connect 18 0 17 0;
#X connect 18 1 19 0;
#X connect 18 2 20 0;
#X connect 25 0 26 0;
#X connect 25 1 27 0;
#X connect 26 0 28 0;
