#N canvas 559 297 802 343 10;
#X obj 6 54 notein;
#X floatatom 6 97 5 0 0 0 - - -;
#X floatatom 44 98 5 0 0 0 - - -;
#X floatatom 82 97 5 0 0 0 - - -;
#X obj 132 52 ctlin;
#X floatatom 132 97 5 0 0 0 - - -;
#X floatatom 172 97 5 0 0 0 - - -;
#X floatatom 213 97 5 0 0 0 - - -;
#X obj 263 53 pgmin;
#X floatatom 261 97 5 0 0 0 - - -;
#X floatatom 300 97 5 0 0 0 - - -;
#X floatatom 349 94 5 0 0 0 - - -;
#X obj 349 52 bendin;
#X floatatom 391 95 5 0 0 0 - - -;
#X obj 446 53 touchin;
#X floatatom 443 94 5 0 0 0 - - -;
#X floatatom 488 94 5 0 0 0 - - -;
#X floatatom 546 95 5 0 0 0 - - -;
#X obj 540 56 polytouchin;
#X floatatom 586 94 5 0 0 0 - - -;
#X floatatom 630 94 5 0 0 0 - - -;
#X text 3 9 midi in;
#X text 2 135 midi out;
#X text 245 25 pgm 1-128;
#X obj 685 51 sysexin;
#X floatatom 685 91 5 0 0 0 - - -;
#X floatatom 729 91 5 0 0 0 - - -;
#X obj 685 121 print sysex;
#X obj 4 279 noteout;
#X obj 693 167 bng 15 250 50 0 empty empty empty 17 7 0 10 -262144
-1 -1;
#X obj 4 222 unpack f f;
#X msg 2 184 64 64;
#X msg 55 184 72 100;
#X obj 116 281 ctlout 1;
#X obj 116 252 unpack f f;
#X obj 119 170 hsl 128 15 0 127 0 0 empty empty empty -2 -8 0 10 -262144
-1 -1 12700 1;
#X obj 207 253 pgmout;
#X obj 210 202 hsl 128 15 0 127 0 0 empty empty empty -2 -8 0 10 -262144
-1 -1 5200 1;
#X floatatom 207 227 5 0 0 0 - - -;
#X floatatom 116 198 5 0 0 0 - - -;
#X obj 307 301 bendout;
#X obj 310 245 hsl 128 15 -8192 8192 0 0 empty empty empty -2 -8 0
10 -262144 -1 -1 4400 1;
#X floatatom 307 270 5 0 0 0 - - -;
#X text 337 29 bend 0 - 16383;
#N canvas 551 149 369 179 sysexout 0;
#X obj -23 11 inlet;
#X obj -23 100 midiout 1;
#X msg -23 71 240 \, 71 \, 0 \, 66 \, 72 \, 0 \, 0 \, 1 \, 75 \, 0
\, 1 \, 0 \, 4 \, 0 \, 247;
#X obj -23 42 t b;
#X connect 0 0 3 0;
#X connect 2 0 1 0;
#X connect 3 0 2 0;
#X restore 693 194 pd sysexout;
#X obj 412 149 hsl 128 15 0 127 0 0 empty empty empty -2 -8 0 10 -262144
-1 -1 7400 1;
#X floatatom 409 174 5 0 0 0 - - -;
#X obj 409 200 touchout;
#X obj 518 266 unpack f f;
#X obj 521 184 hsl 128 15 0 127 0 0 empty empty empty -2 -8 0 10 -262144
-1 -1 1900 1;
#X floatatom 518 212 5 0 0 0 - - -;
#X obj 518 295 polytouchout;
#X text 323 228 bend -8192 - 8192 in pd;
#X msg 116 224 \$1 7;
#X msg 518 238 \$1 64;
#X text 564 238 set value for pitch 64;
#X text 93 303 set value for ctl 7 (vol);
#X obj 4 250 makenote 5000;
#X connect 0 0 1 0;
#X connect 0 1 2 0;
#X connect 0 2 3 0;
#X connect 4 0 5 0;
#X connect 4 1 6 0;
#X connect 4 2 7 0;
#X connect 8 0 9 0;
#X connect 8 1 10 0;
#X connect 12 0 11 0;
#X connect 12 1 13 0;
#X connect 14 0 15 0;
#X connect 14 1 16 0;
#X connect 18 0 17 0;
#X connect 18 1 19 0;
#X connect 18 2 20 0;
#X connect 24 0 25 0;
#X connect 24 1 26 0;
#X connect 25 0 27 0;
#X connect 29 0 44 0;
#X connect 30 0 57 0;
#X connect 30 1 57 1;
#X connect 31 0 30 0;
#X connect 32 0 30 0;
#X connect 34 0 33 0;
#X connect 34 1 33 1;
#X connect 35 0 39 0;
#X connect 37 0 38 0;
#X connect 38 0 36 0;
#X connect 39 0 53 0;
#X connect 41 0 42 0;
#X connect 42 0 40 0;
#X connect 45 0 46 0;
#X connect 46 0 47 0;
#X connect 48 0 51 0;
#X connect 48 1 51 1;
#X connect 49 0 50 0;
#X connect 50 0 54 0;
#X connect 53 0 34 0;
#X connect 54 0 48 0;
#X connect 57 0 28 0;
#X connect 57 1 28 1;
